<svg width="20" height="28" viewBox="0 0 20 28" fill="none" xmlns="http://www.w3.org/2000/svg">
<path d="M19.9765 12.8528C19.9421 12.7031 19.8722 12.5645 19.7732 12.4493C19.6741 12.3341 19.5488 12.2458 19.4085 12.1922L12.8635 9.67022L14.529 1.1122C14.5667 0.913354 14.5405 0.707307 14.4542 0.525145C14.3679 0.342984 14.2263 0.194594 14.0507 0.102367C13.8751 0.0101404 13.6751 -0.020919 13.4808 0.0138759C13.2865 0.0486708 13.1086 0.147432 12.9737 0.295257L0.24962 14.2999C0.146277 14.4118 0.0715164 14.5482 0.0320192 14.697C-0.00747801 14.8458 -0.0104823 15.0023 0.0232749 15.1526C0.0570321 15.3028 0.126499 15.4422 0.22547 15.5581C0.324441 15.6741 0.449834 15.7631 0.590444 15.8171L7.13768 18.3391L5.47673 26.8878C5.43901 27.0866 5.46528 27.2927 5.55156 27.4749C5.63785 27.657 5.77946 27.8054 5.95505 27.8976C6.13063 27.9899 6.33065 28.0209 6.52492 27.9861C6.71919 27.9513 6.89718 27.8526 7.03202 27.7047L19.7561 13.7001C19.8576 13.5882 19.9308 13.4524 19.9692 13.3047C20.0076 13.1569 20.0101 13.0018 19.9765 12.8528ZM7.88635 24.0367L9.07583 17.9236C9.1184 17.7068 9.08467 17.4816 8.98064 17.2879C8.87661 17.0943 8.70904 16.9449 8.50779 16.8663L2.50474 14.5497L12.1183 3.96915L10.9299 10.0822C10.8873 10.299 10.9211 10.5243 11.0251 10.7179C11.1291 10.9116 11.2967 11.061 11.498 11.1395L17.4965 13.4503L7.88635 24.0367Z" fill="#393939"/>
</svg>
