<svg width="18" height="17" viewBox="0 0 18 17" fill="none" xmlns="http://www.w3.org/2000/svg">
<path d="M8.53125 0C6.84393 0 5.1945 0.476523 3.79155 1.36931C2.38859 2.2621 1.29512 3.53105 0.649407 5.0157C0.00369646 6.50035 -0.165251 8.13401 0.163929 9.71011C0.49311 11.2862 1.30563 12.7339 2.49875 13.8702C3.69187 15.0065 5.21199 15.7804 6.86689 16.0939C8.52179 16.4074 10.2371 16.2465 11.796 15.6315C13.3549 15.0166 14.6873 13.9752 15.6247 12.639C16.5622 11.3029 17.0625 9.73197 17.0625 8.125C17.0601 5.97081 16.1605 3.90551 14.5611 2.38227C12.9617 0.85903 10.7931 0.00227486 8.53125 0ZM8.53125 15C7.10352 15 5.70785 14.5968 4.52073 13.8414C3.33361 13.0859 2.40837 12.0122 1.862 10.7559C1.31563 9.49971 1.17267 8.11737 1.45121 6.78375C1.72975 5.45013 2.41727 4.22513 3.42683 3.26364C4.43639 2.30216 5.72265 1.64737 7.12295 1.3821C8.52325 1.11683 9.9747 1.25298 11.2937 1.77333C12.6128 2.29368 13.7402 3.17487 14.5334 4.30545C15.3266 5.43604 15.75 6.76525 15.75 8.125C15.7478 9.94773 14.9866 11.6952 13.6333 12.9841C12.28 14.2729 10.4451 14.9979 8.53125 15ZM5.99403 5.95781C6.36489 6.62559 6.55876 7.36957 6.55876 8.125C6.55876 8.88043 6.36489 9.62441 5.99403 10.2922C5.9548 10.3665 5.9004 10.4326 5.83401 10.4866C5.76762 10.5406 5.69058 10.5815 5.60739 10.6068C5.52421 10.6321 5.43656 10.6414 5.34958 10.634C5.2626 10.6266 5.17803 10.6028 5.10084 10.5639C5.02365 10.525 4.95539 10.4719 4.90005 10.4075C4.84471 10.3432 4.80341 10.269 4.77857 10.1892C4.75373 10.1095 4.74584 10.0259 4.75538 9.9432C4.76492 9.86053 4.79168 9.7805 4.83411 9.70781C5.10874 9.22123 5.25249 8.67742 5.25249 8.125C5.25249 7.57258 5.10874 7.02876 4.83411 6.54219C4.75699 6.39609 4.74305 6.22704 4.7953 6.07127C4.84754 5.91551 4.9618 5.78545 5.11356 5.70899C5.26533 5.63253 5.44251 5.61576 5.60711 5.66227C5.77171 5.70879 5.91061 5.81489 5.99403 5.95781ZM10.5878 3.45781C11.3949 4.89421 11.8173 6.49818 11.8173 8.12734C11.8173 9.75651 11.3949 11.3605 10.5878 12.7969C10.5004 12.9335 10.3613 13.033 10.1992 13.0749C10.0371 13.1169 9.86429 13.098 9.71636 13.0222C9.56843 12.9464 9.45666 12.8194 9.40405 12.6675C9.35145 12.5156 9.36202 12.3502 9.4336 12.2055C10.1394 10.9504 10.5088 9.54874 10.5088 8.125C10.5088 6.70126 10.1394 5.29958 9.4336 4.04453C9.35158 3.89825 9.33393 3.72693 9.38455 3.56825C9.43516 3.40958 9.54988 3.27655 9.70348 3.19844C9.85708 3.12032 10.037 3.10352 10.2036 3.15172C10.3702 3.19992 10.5099 3.30919 10.5919 3.45547L10.5878 3.45781ZM8.2909 4.70781C8.88005 5.76 9.18821 6.93412 9.18821 8.12656C9.18821 9.31901 8.88005 10.4931 8.2909 11.5453C8.25127 11.6192 8.19659 11.6848 8.13004 11.7384C8.06349 11.792 7.98641 11.8324 7.90329 11.8572C7.82018 11.8821 7.73269 11.891 7.64593 11.8834C7.55918 11.8757 7.47489 11.8517 7.39799 11.8127C7.32109 11.7737 7.25312 11.7205 7.19803 11.6562C7.14295 11.5919 7.10185 11.5178 7.07715 11.4382C7.05245 11.3586 7.04463 11.2752 7.05416 11.1927C7.06368 11.1102 7.09035 11.0304 7.13262 10.9578C7.62065 10.0865 7.87593 9.11411 7.87593 8.12656C7.87593 7.13901 7.62065 6.16665 7.13262 5.29531C7.09035 5.22275 7.06368 5.1429 7.05416 5.06042C7.04463 4.97794 7.05245 4.89448 7.07715 4.81491C7.10185 4.73534 7.14295 4.66125 7.19803 4.59696C7.25312 4.53267 7.32109 4.47947 7.39799 4.44046C7.47489 4.40146 7.55918 4.37743 7.64593 4.36977C7.73269 4.36212 7.82018 4.37099 7.90329 4.39588C7.98641 4.42076 8.06349 4.46116 8.13004 4.51472C8.19659 4.56828 8.25127 4.63392 8.2909 4.70781Z" fill="#000000"/>
</svg>
