<svg width="20" height="18" viewBox="0 0 20 18" fill="none" xmlns="http://www.w3.org/2000/svg">
<path d="M20 6.12C20.0007 6.01964 19.9869 5.91968 19.9592 5.823L18.6296 1.3059C18.5182 0.930771 18.2848 0.600806 17.9643 0.365396C17.6438 0.129985 17.2535 0.00179022 16.8518 0H3.14814C2.74645 0.00179022 2.35616 0.129985 2.03568 0.365396C1.71521 0.600806 1.48179 0.930771 1.37037 1.3059L0.0425928 5.823C0.0142555 5.91959 -8.00413e-05 6.01956 3.36123e-07 6.12V7.56C-9.76347e-05 8.14358 0.132685 8.71994 0.388822 9.24775C0.644959 9.77556 1.0181 10.2417 1.48148 10.6128V16.92C1.48148 17.2064 1.59854 17.4811 1.80692 17.6837C2.01529 17.8862 2.2979 18 2.59259 18H17.4074C17.7021 18 17.9847 17.8862 18.1931 17.6837C18.4014 17.4811 18.5185 17.2064 18.5185 16.92V10.6128C18.9819 10.2417 19.355 9.77556 19.6112 9.24775C19.8673 8.71994 20.0001 8.14358 20 7.56V6.12ZM3.43055 2.16H16.5741L17.4203 5.04H2.58426L3.43055 2.16ZM11.8565 7.2V7.56C11.8565 8.03739 11.6614 8.49523 11.3141 8.83279C10.9668 9.17036 10.4958 9.36 10.0046 9.36C9.51348 9.36 9.04245 9.17036 8.69516 8.83279C8.34787 8.49523 8.15277 8.03739 8.15277 7.56V7.2H11.8565ZM3.05555 9.0639C2.79938 8.89992 2.58912 8.67665 2.44366 8.41415C2.29821 8.15166 2.22212 7.85815 2.22222 7.56V7.2H5.92592V7.56C5.92592 8.03739 5.73081 8.49523 5.38352 8.83279C5.03624 9.17036 4.56521 9.36 4.07407 9.36C3.78188 9.36013 3.49391 9.29223 3.23426 9.162C3.17806 9.1238 3.11822 9.09095 3.05555 9.0639ZM16.2963 15.84H3.7037V11.5029C3.82592 11.5137 3.94907 11.52 4.07407 11.52C4.62938 11.5202 5.17883 11.4096 5.68846 11.1952C6.19809 10.9808 6.65707 10.6671 7.03703 10.2735C7.41708 10.667 7.87607 10.9807 8.38568 11.1951C8.89529 11.4095 9.44469 11.5201 9.99999 11.5201C10.5553 11.5201 11.1047 11.4095 11.6143 11.1951C12.1239 10.9807 12.5829 10.667 12.9629 10.2735C13.3429 10.6671 13.8019 10.9808 14.3115 11.1952C14.8211 11.4096 15.3706 11.5202 15.9259 11.52C16.0509 11.52 16.1741 11.5137 16.2963 11.5029V15.84ZM17.7778 7.56C17.7779 7.85815 17.7018 8.15166 17.5563 8.41415C17.4109 8.67665 17.2006 8.89992 16.9444 9.0639C16.8834 9.09126 16.8251 9.1241 16.7703 9.162C16.488 9.3026 16.1733 9.37035 15.8563 9.35877C15.5393 9.34718 15.2307 9.25665 14.9601 9.09584C14.6894 8.93503 14.4658 8.70935 14.3107 8.44042C14.1555 8.17149 14.074 7.86833 14.0741 7.56V7.2H17.7778V7.56Z" fill="#393939"/>
</svg>
