<svg width="20" height="16" viewBox="0 0 20 16" fill="none" xmlns="http://www.w3.org/2000/svg">
<path d="M11.7084 11.1783C12.6892 10.374 13.4052 9.27073 13.7568 8.02213C14.1085 6.77352 14.0782 5.44164 13.6702 4.21184C13.2622 2.98203 12.4968 1.91546 11.4806 1.16057C10.4643 0.405674 9.24773 0 8.00011 0C6.75249 0 5.5359 0.405674 4.51964 1.16057C3.50338 1.91546 2.73801 2.98203 2.33003 4.21184C1.92205 5.44164 1.89176 6.77352 2.24338 8.02213C2.59499 9.27073 3.31102 10.374 4.29181 11.1783C2.71457 11.8496 1.32078 12.9171 0.234356 14.2857C0.0637353 14.4976 -0.0192124 14.7714 0.00376053 15.0471C0.0267335 15.3227 0.153745 15.5776 0.356855 15.7556C0.559964 15.9335 0.822534 16.02 1.0868 15.9961C1.35107 15.9721 1.59539 15.8396 1.76601 15.6278C2.90683 14.211 4.91681 12.5229 8.00011 12.5229C11.0834 12.5229 13.0934 14.211 14.2342 15.6278C14.4048 15.8396 14.6491 15.9721 14.9134 15.9961C15.1777 16.02 15.4403 15.9335 15.6434 15.7556C15.8465 15.5776 15.9735 15.3227 15.9965 15.0471C16.0194 14.7714 15.9365 14.4976 15.7659 14.2857C14.6796 12.9169 13.2858 11.8494 11.7084 11.1783ZM4.00015 6.26458C4.00015 5.43939 4.23474 4.63273 4.67426 3.94661C5.11378 3.26049 5.73849 2.72573 6.46939 2.40994C7.20029 2.09415 8.00454 2.01153 8.78046 2.17252C9.55638 2.3335 10.2691 2.73087 10.8285 3.31437C11.3879 3.89787 11.7689 4.64129 11.9232 5.45062C12.0775 6.25996 11.9983 7.09885 11.6956 7.86123C11.3928 8.62361 10.8802 9.27522 10.2224 9.73367C9.56458 10.1921 8.79122 10.4368 8.00011 10.4368C6.93959 10.4357 5.92283 9.99573 5.17293 9.21353C4.42303 8.43133 4.00125 7.37078 4.00015 6.26458ZM20 6.26458C20.003 7.95987 19.6738 9.63791 19.0325 11.1956C18.9868 11.3302 18.9152 11.4536 18.8219 11.5582C18.7287 11.6627 18.6159 11.7462 18.4905 11.8034C18.3651 11.8606 18.2298 11.8903 18.0929 11.8908C17.956 11.8912 17.8205 11.8624 17.6947 11.806C17.569 11.7496 17.4557 11.6668 17.3618 11.5629C17.268 11.459 17.1956 11.3361 17.1491 11.2018C17.1027 11.0675 17.0831 10.9246 17.0918 10.7821C17.1004 10.6397 17.1369 10.5005 17.1992 10.3734C17.7304 9.0744 18.0042 7.67679 18.0042 6.26458C18.0042 4.85238 17.7304 3.45477 17.1992 2.1558C17.1369 2.02865 17.1004 1.88951 17.0918 1.74702C17.0831 1.60453 17.1027 1.46171 17.1491 1.32741C17.1956 1.19311 17.268 1.07019 17.3618 0.966259C17.4557 0.862328 17.569 0.779601 17.6947 0.723201C17.8205 0.666801 17.956 0.637929 18.0929 0.638373C18.2298 0.638818 18.3651 0.668568 18.4905 0.725783C18.6159 0.782998 18.7287 0.866459 18.8219 0.970997C18.9152 1.07553 18.9868 1.19892 19.0325 1.33352C19.6738 2.89126 20.003 4.5693 20 6.26458ZM16.25 2.50609C16.7453 3.69179 17.0009 4.97125 17.0009 6.26458C17.0009 7.55792 16.7453 8.83738 16.25 10.0231C16.1437 10.2767 15.9452 10.4758 15.6981 10.5767C15.451 10.6776 15.1756 10.672 14.9325 10.5611C14.6894 10.4502 14.4985 10.2432 14.4018 9.98543C14.305 9.72772 14.3104 9.44047 14.4167 9.18689C14.8009 8.26475 14.9992 7.27004 14.9992 6.26458C14.9992 5.25913 14.8009 4.26442 14.4167 3.34228C14.3104 3.0887 14.305 2.80145 14.4018 2.54373C14.4985 2.28601 14.6894 2.07894 14.9325 1.96805C15.1756 1.85717 15.451 1.85156 15.6981 1.95246C15.9452 2.05336 16.1437 2.25251 16.25 2.50609Z" fill="#393939"/>
</svg>
