<svg width="80" height="61" viewBox="0 0 80 61" fill="none" xmlns="http://www.w3.org/2000/svg">
<path d="M71.0938 0H8.59375C6.31455 0 4.12869 0.90541 2.51705 2.51705C0.90541 4.12869 0 6.31455 0 8.59375V52.3438C0 54.623 0.90541 56.8088 2.51705 58.4204C4.12869 60.0321 6.31455 60.9375 8.59375 60.9375H71.0938C73.373 60.9375 75.5588 60.0321 77.1704 58.4204C78.7821 56.8088 79.6875 54.623 79.6875 52.3438V8.59375C79.6875 6.31455 78.7821 4.12869 77.1704 2.51705C75.5588 0.90541 73.373 0 71.0938 0ZM4.6875 17.1875H75V25H52.3438C51.7221 25 51.126 25.2469 50.6865 25.6865C50.2469 26.126 50 26.7221 50 27.3438C50 30.0374 48.93 32.6206 47.0253 34.5253C45.1206 36.43 42.5374 37.5 39.8438 37.5C37.1501 37.5 34.5669 36.43 32.6622 34.5253C30.7575 32.6206 29.6875 30.0374 29.6875 27.3438C29.6875 26.7221 29.4406 26.126 29.001 25.6865C28.5615 25.2469 27.9654 25 27.3438 25H4.6875V17.1875ZM8.59375 4.6875H71.0938C72.1298 4.6875 73.1233 5.09905 73.8559 5.83161C74.5885 6.56418 75 7.55775 75 8.59375V12.5H4.6875V8.59375C4.6875 7.55775 5.09905 6.56418 5.83161 5.83161C6.56418 5.09905 7.55775 4.6875 8.59375 4.6875ZM71.0938 56.25H8.59375C7.55775 56.25 6.56418 55.8385 5.83161 55.1059C5.09905 54.3733 4.6875 53.3798 4.6875 52.3438V29.6875H25.1836C25.7376 33.1772 27.5183 36.3549 30.2056 38.6491C32.8928 40.9434 36.3103 42.2039 39.8438 42.2039C43.3772 42.2039 46.7947 40.9434 49.4819 38.6491C52.1692 36.3549 53.9499 33.1772 54.5039 29.6875H75V52.3438C75 53.3798 74.5885 54.3733 73.8559 55.1059C73.1233 55.8385 72.1298 56.25 71.0938 56.25Z" fill="#1A4B4A"/>
</svg>
